<?xml version="1.0" encoding="UTF-8"?>
<svg width="32px" height="32px" viewBox="0 0 32 32" version="1.1" xmlns="http://www.w3.org/2000/svg" xmlns:xlink="http://www.w3.org/1999/xlink">
    <!-- Generator: Sketch 44.1 (41455) - http://www.bohemiancoding.com/sketch -->
    <title>file-text@2x</title>
    <desc>Created with Sketch.</desc>
    <defs></defs>
    <g id="Page-1" stroke="none" stroke-width="1" fill="none" fill-rule="evenodd">
        <g id="1280-copy-28" transform="translate(-302.000000, -1117.000000)" fill-rule="nonzero" fill="#57A7ED">
            <g id="Group-2" transform="translate(0.000000, 593.000000)">
                <g id="Group-12" transform="translate(290.000000, 512.000000)">
                    <g id="file-text" transform="translate(12.000000, 12.000000)">
                        <path d="M18,5 C18.2652165,5 18.5195704,5.10535684 18.7071068,5.29289322 L24.7071068,11.2928932 C24.8946432,11.4804296 25,11.7347835 25,12 L25,24 C25,25.6568542 23.6568542,27 22,27 L10,27 C8.34314575,27 7,25.6568542 7,24 L7,8 C7,6.34314575 8.34314575,5 10,5 L18,5 Z M10,7 C9.44771525,7 9,7.44771525 9,8 L9,24 C9,24.5522847 9.44771525,25 10,25 L22,25 C22.5522847,25 23,24.5522847 23,24 L23,12.4142136 L17.5857864,7 L10,7 Z" id="Shape"></path>
                        <path d="M19,6 C19,5.44771525 18.5522847,5 18,5 C17.4477153,5 17,5.44771525 17,6 L17,12 C17,12.5522847 17.4477153,13 18,13 L24,13 C24.5522847,13 25,12.5522847 25,12 C25,11.4477153 24.5522847,11 24,11 L19,11 L19,6 Z" id="Shape"></path>
                        <path d="M20,16 L12,16 C11.4477153,16 11,16.4477153 11,17 C11,17.5522847 11.4477153,18 12,18 L20,18 C20.5522847,18 21,17.5522847 21,17 C21,16.4477153 20.5522847,16 20,16 Z" id="Shape"></path>
                        <path d="M20,20 L12,20 C11.4477153,20 11,20.4477153 11,21 C11,21.5522847 11.4477153,22 12,22 L20,22 C20.5522847,22 21,21.5522847 21,21 C21,20.4477153 20.5522847,20 20,20 Z" id="Shape"></path>
                        <path d="M14,12 L12,12 C11.4477153,12 11,12.4477153 11,13 C11,13.5522847 11.4477153,14 12,14 L14,14 C14.5522847,14 15,13.5522847 15,13 C15,12.4477153 14.5522847,12 14,12 Z" id="Shape"></path>
                    </g>
                </g>
            </g>
        </g>
    </g>
</svg>