<?xml version="1.0" encoding="UTF-8"?>
<svg width="16px" height="16px" viewBox="0 0 16 16" version="1.1" xmlns="http://www.w3.org/2000/svg" xmlns:xlink="http://www.w3.org/1999/xlink">
    <!-- Generator: Sketch 44.1 (41455) - http://www.bohemiancoding.com/sketch -->
    <title>icon-close@2x</title>
    <desc>Created with Sketch.</desc>
    <defs></defs>
    <g id="Page-1" stroke="none" stroke-width="1" fill="none" fill-rule="evenodd">
        <g id="1280-copy-28" transform="translate(-1044.000000, -144.000000)" fill="#A9AFB4">
            <g id="Group-37" transform="translate(1044.000000, 144.000000)">
                <path d="M8,6.62367793 L3.16136771,1.78504563 C2.78130686,1.40498479 2.16510648,1.40498479 1.78504563,1.78504563 C1.40498479,2.16510648 1.40498479,2.78130686 1.78504563,3.16136771 L6.62367793,8 L1.78504563,12.8386323 C1.40498479,13.2186931 1.40498479,13.8348935 1.78504563,14.2149544 C2.16510648,14.5950152 2.78130686,14.5950152 3.16136771,14.2149544 L8,9.37632207 L12.8386323,14.2149544 C13.2186931,14.5950152 13.8348935,14.5950152 14.2149544,14.2149544 C14.5950152,13.8348935 14.5950152,13.2186931 14.2149544,12.8386323 L9.37632207,8 L14.2149544,3.16136771 C14.5950152,2.78130686 14.5950152,2.16510648 14.2149544,1.78504563 C13.8348935,1.40498479 13.2186931,1.40498479 12.8386323,1.78504563 L8,6.62367793 Z" id="Combined-Shape"></path>
            </g>
        </g>
    </g>
</svg>