<?xml version="1.0" encoding="UTF-8"?>
<svg width="32px" height="32px" viewBox="0 0 32 32" version="1.1" xmlns="http://www.w3.org/2000/svg" xmlns:xlink="http://www.w3.org/1999/xlink">
    <!-- Generator: Sketch 44.1 (41455) - http://www.bohemiancoding.com/sketch -->
    <title>icon-video@2x</title>
    <desc>Created with Sketch.</desc>
    <defs></defs>
    <g id="Page-1" stroke="none" stroke-width="1" fill="none" fill-rule="evenodd">
        <g id="1280-copy-28" transform="translate(-302.000000, -1251.000000)" fill-rule="nonzero" fill="#57A7ED">
            <g id="Group-2" transform="translate(0.000000, 593.000000)">
                <g id="Group-12" transform="translate(290.000000, 646.000000)">
                    <g id="Group-31" transform="translate(12.000000, 12.000000)">
                        <path d="M12,8.8023879 L12,23.201049 L22.4870437,16.0017184 L12,8.8023879 Z M13.1319351,7.15353284 L23.6189788,14.3528634 C24.5296163,14.9780139 24.7610492,16.223016 24.1358987,17.1336535 C23.9968134,17.3362548 23.8215801,17.5114882 23.6189788,17.6505735 L13.1319351,24.849904 C12.2212976,25.4750545 10.9762954,25.2436216 10.3511449,24.3329841 C10.1224246,23.9998142 10,23.6051717 10,23.201049 L10,8.8023879 C10,7.6978184 10.8954305,6.8023879 12,6.8023879 C12.4041227,6.8023879 12.7987652,6.92481252 13.1319351,7.15353284 Z" id="Rectangle-5"></path>
                    </g>
                </g>
            </g>
        </g>
    </g>
</svg>