<?xml version="1.0" encoding="UTF-8"?>
<svg width="24px" height="25px" viewBox="0 0 24 25" version="1.1" xmlns="http://www.w3.org/2000/svg" xmlns:xlink="http://www.w3.org/1999/xlink">
    <!-- Generator: Sketch 44.1 (41455) - http://www.bohemiancoding.com/sketch -->
    <title>Combined Shape</title>
    <desc>Created with Sketch.</desc>
    <defs></defs>
    <g id="Page-1" stroke="none" stroke-width="1" fill="none" fill-rule="evenodd">
        <g id="1280-copy-28" transform="translate(-57.000000, -52.000000)" fill="#FFFFFF">
            <g id="Group-28" transform="translate(41.000000, 37.000000)">
                <path d="M23.6480201,26.4797627 C22.8173874,26.4751481 21.9880344,26.5455407 21.1700616,26.6900832 C21.8430832,20.5493615 27.0305522,15.8996448 33.2080453,15.9000015 C36.9899912,15.9000015 39.5813953,17.7266037 39.5813953,21.5085496 C39.5813953,25.2904956 36.4712005,27.1170977 31.9333752,27.1170977 C28.5835424,27.1170977 26.9978529,26.4797627 23.6480201,26.4797627 Z M23.6480201,28.7829038 C26.9978529,28.7829038 28.5835424,29.4202388 31.9333752,29.4202388 C32.7640079,29.4248534 33.593361,29.3544608 34.4113338,29.2099183 C33.7383121,35.35064 28.5508432,40.0003567 22.3733501,40 C18.5914041,40 16,38.1733979 16,34.3914519 C16,30.609506 19.1101948,28.7829038 23.6480201,28.7829038 Z" id="Combined-Shape"></path>
            </g>
        </g>
    </g>
</svg>